<?xml version="1.0" standalone="no"?>
<!DOCTYPE svg PUBLIC "-//W3C//DTD SVG 20010904//EN"
 "http://www.w3.org/TR/2001/REC-SVG-20010904/DTD/svg10.dtd">
<svg version="1.0" xmlns="http://www.w3.org/2000/svg"
 width="1468.000000pt" height="504.000000pt" viewBox="0 0 1468.000000 504.000000"
 preserveAspectRatio="xMidYMid meet">

<g transform="translate(0.000000,504.000000) scale(0.100000,-0.100000)"
fill="#000000" stroke="none">
<path d="M5595 3419 c-314 -331 -364 -385 -506 -539 -177 -192 -654 -716 -824
-905 -88 -98 -185 -206 -215 -240 -30 -33 -130 -146 -221 -250 -390 -446 -451
-515 -459 -520 -4 -3 -20 12 -36 33 -28 37 -164 202 -174 212 -3 3 -73 87
-154 188 -82 100 -152 182 -157 182 -4 0 -22 -18 -41 -39 -18 -22 -102 -114
-186 -205 -98 -106 -151 -170 -146 -178 4 -7 13 -19 20 -28 8 -8 102 -125 212
-260 109 -135 233 -288 276 -340 43 -52 112 -137 153 -188 l75 -92 177 0 177
0 40 43 c22 23 65 71 95 107 56 67 182 208 324 365 188 208 456 505 540 600
50 56 169 187 266 291 373 400 681 736 957 1041 l82 91 -2 458 -3 458 -270
-285z"/>
<path d="M2719 2843 c-93 -117 -1134 -1189 -1898 -1956 l-636 -637 465 0 465
1 114 122 c63 67 155 165 206 217 179 186 623 659 1090 1163 l220 238 20 -24
c11 -13 56 -68 100 -122 44 -54 127 -154 185 -222 58 -69 131 -157 163 -196
83 -102 127 -149 138 -145 5 2 89 93 188 203 l179 199 -31 41 c-205 260 -555
691 -704 867 -104 121 -200 234 -214 251 l-25 30 -25 -30z"/>
<path d="M6942 1664 l3 -789 143 -3 142 -3 0 416 c0 228 3 415 8 415 4 0 95
-131 202 -290 312 -464 291 -438 339 -431 10 1 33 34 303 436 104 154 193 282
198 283 6 2 10 -150 10 -411 l0 -416 143 2 142 2 3 788 2 787 -24 0 c-62 0
-68 -7 -353 -400 -174 -241 -342 -476 -393 -552 -25 -37 -47 -68 -50 -68 -3 0
-32 39 -64 88 -131 193 -613 860 -651 900 -13 14 -38 26 -64 29 l-41 6 2 -789z"/>
<path d="M9542 1663 l3 -788 145 0 145 0 0 785 0 785 -148 3 -147 3 2 -788z"/>
<path d="M10850 1662 l0 -789 148 1 147 1 3 268 2 268 137 -3 136 -3 170 -267
169 -267 169 0 c93 0 169 2 169 4 0 8 -120 195 -278 433 -52 79 -93 144 -91
146 2 1 20 9 39 16 47 18 129 72 162 107 82 87 134 250 124 384 -19 242 -156
402 -397 465 -53 14 -129 18 -436 21 l-373 5 0 -790z m773 489 c149 -73 182
-292 61 -408 -66 -63 -110 -73 -340 -73 l-193 0 -3 251 c-2 138 -1 253 2 256
3 2 99 3 215 1 196 -3 213 -5 258 -27z"/>
<path d="M13627 2428 c-52 -81 -826 -1497 -842 -1540 -6 -15 9 -16 158 -17
l165 -2 20 33 c11 18 57 105 103 193 202 390 413 785 419 785 3 0 45 -75 94
-168 157 -293 418 -776 438 -809 l20 -33 164 0 165 0 -42 77 c-52 95 -262 481
-297 543 -13 25 -78 142 -143 260 -234 427 -386 694 -397 698 -6 2 -17 -7 -25
-20z"/>
<path d="M5743 2213 c-65 -70 -207 -220 -315 -334 l-198 -207 0 -711 0 -711
320 0 320 0 0 1045 c0 575 -2 1045 -4 1045 -3 0 -58 -57 -123 -127z"/>
</g>
</svg>
