<?xml version="1.0" encoding="UTF-8"?>
<svg version="1.1" xmlns="http://www.w3.org/2000/svg" width="1468" height="504">
<path d="M0 0 C0.30234892 11.90045989 0.53276197 23.79999413 0.67355824 35.70352459 C0.74116623 41.23220464 0.83271894 46.75824159 0.98071289 52.28540039 C1.12286689 57.62841694 1.19987477 62.96890648 1.23340416 68.3136692 C1.2572684 70.34361349 1.30387467 72.37343244 1.37449074 74.40228844 C1.93259454 91.11487349 1.93259454 91.11487349 -2.80923462 97.02285767 C-5.46304933 99.84991345 -8.35498621 102.27376358 -11.40778542 104.65525246 C-13.94002015 106.79391923 -15.84021982 109.26271842 -17.875 111.875 C-20.84646679 115.6218678 -23.91539726 119.03217036 -27.34765625 122.35546875 C-29.00845601 124.00841603 -30.53622391 125.72251638 -32.0625 127.5 C-36.15634482 132.25294455 -40.45992036 136.80541088 -44.76196289 141.36914062 C-47.72235231 144.51957049 -50.63078164 147.69998825 -53.46484375 150.96484375 C-57.05902947 155.09950852 -60.79329989 159.08761366 -64.5625 163.0625 C-65.96897379 164.55187203 -67.37521919 166.04145977 -68.78125 167.53125 C-69.48378906 168.27503906 -70.18632813 169.01882813 -70.91015625 169.78515625 C-81.88502744 181.38374211 -81.88502744 181.38374211 -92.49609375 193.3125 C-94.64092746 195.71917055 -96.94295561 197.95294744 -99.2421875 200.2109375 C-101.74729385 202.76057907 -104.05674153 205.46622248 -106.390625 208.171875 C-108.48913942 210.55562439 -110.75446974 212.75446974 -113 215 C-116.02861532 218.30772301 -119.01143258 221.6561143 -122 225 C-123.54121622 226.70873972 -125.0828735 228.41708175 -126.625 230.125 C-129.17531162 232.95527722 -131.70049638 235.80157851 -134.1875 238.6875 C-138.27011735 243.39159306 -142.58466223 247.87847898 -146.85913086 252.40722656 C-150.78275813 256.5987702 -154.42323063 260.88096452 -157.765625 265.55859375 C-158.17296875 266.03425781 -158.5803125 266.50992187 -159 267 C-159.66 267 -160.32 267 -161 267 C-161.27239502 267.59458008 -161.54479004 268.18916016 -161.82543945 268.80175781 C-162.97029488 270.94440556 -164.12644698 272.42006637 -165.79296875 274.171875 C-166.33703369 274.74945557 -166.88109863 275.32703613 -167.44165039 275.92211914 C-168.01778076 276.52531982 -168.59391113 277.12852051 -169.1875 277.75 C-170.37844742 279.01352863 -171.56855996 280.27784474 -172.7578125 281.54296875 C-173.60907715 282.44668213 -173.60907715 282.44668213 -174.47753906 283.36865234 C-176.21554666 285.2309626 -177.90068615 287.13198491 -179.5625 289.0625 C-182.62822867 292.61752202 -185.80815723 296.05865746 -189 299.5 C-192.82799024 303.6286854 -196.60858783 307.78486429 -200.29296875 312.04296875 C-202.33633431 314.3855915 -204.41680859 316.69273422 -206.5 319 C-209.76022255 322.61267904 -212.98143565 326.25488991 -216.17578125 329.92578125 C-219.04263202 333.18551949 -221.96588484 336.39410784 -224.88671875 339.60546875 C-227.05448638 341.9329572 -227.05448638 341.9329572 -228.63525391 344.5949707 C-231.82385602 347.83789032 -234.62630291 347.82407178 -238.94921875 347.875 C-239.72127151 347.89401367 -240.49332428 347.91302734 -241.28877258 347.93261719 C-242.92173779 347.96226797 -244.55500121 347.97822871 -246.18823242 347.98144531 C-248.66646976 347.99984387 -251.13167102 348.10326395 -253.60742188 348.2109375 C-265.12717107 348.45278545 -265.12717107 348.45278545 -269.96191406 344.70239258 C-272.24468561 341.91020103 -274.13753942 339.08433987 -276 336 C-276.93725576 334.83424408 -277.8988569 333.6869963 -278.8984375 332.57421875 C-284.0448942 326.57543089 -289.01775433 320.48036927 -293.86791992 314.23999023 C-297.49419153 309.59425371 -301.26437404 305.08850693 -305.09033203 300.60668945 C-308.40172851 296.72328147 -311.61550366 292.77668046 -314.78515625 288.77734375 C-317.04852794 285.9391475 -319.33759986 283.12343703 -321.63256836 280.31079102 C-323.87191385 277.56376075 -326.10222335 274.80946182 -328.33203125 272.0546875 C-329.43788256 270.69244444 -330.54722588 269.33302823 -331.66015625 267.9765625 C-333.21990431 266.0747974 -334.76731099 264.16360037 -336.3125 262.25 C-336.7866333 261.67797852 -337.2607666 261.10595703 -337.74926758 260.51660156 C-340.32200218 257.30249305 -341 256.27830225 -341 252 C-339.19963546 249.93061547 -337.43387056 248.10973796 -335.4375 246.25 C-334.32371032 245.17635421 -333.21172276 244.10083572 -332.1015625 243.0234375 C-331.56305664 242.50362305 -331.02455078 241.98380859 -330.46972656 241.44824219 C-328.07115083 239.08472869 -325.89283322 236.55417343 -323.70703125 233.99609375 C-318.06912153 227.40348078 -312.20490438 221.06023044 -306 215 C-304.99884726 214.00115407 -303.99850412 213.00149365 -303 212 C-299.3467989 215.56104828 -295.96394379 219.27517129 -292.6875 223.1875 C-292.20748535 223.75774902 -291.7274707 224.32799805 -291.23291016 224.91552734 C-287.74062029 229.07900805 -284.32502801 233.29925623 -280.9453125 237.5546875 C-274.88073423 245.17803287 -268.62966753 252.62505193 -262.25341797 259.98779297 C-259.49016049 263.19682376 -256.86027548 266.44179549 -254.375 269.875 C-253.199375 271.421875 -253.199375 271.421875 -252 273 C-251.34 273 -250.68 273 -250 273 C-248.64902626 271.48848454 -247.37072655 269.91186687 -246.125 268.3125 C-242.57547728 263.86703666 -238.89441097 259.64504444 -235 255.5 C-230.54370303 250.74334931 -226.36860531 245.84174364 -222.28515625 240.7578125 C-218.86059235 236.62492 -215.21015533 232.71265083 -211.5625 228.77734375 C-208.90133655 225.89306447 -206.31300992 222.95662867 -203.7421875 219.9921875 C-201.68499601 217.63979365 -199.59403085 215.31965034 -197.5 213 C-194.81016569 210.01937279 -192.13689636 207.02754767 -189.5 204 C-186.10746907 200.10487189 -182.64805799 196.27217237 -179.1875 192.4375 C-177.27445851 190.30582519 -175.38112388 188.1598089 -173.5 186 C-169.38917573 181.28297123 -165.1925774 176.64430291 -161 172 C-158.74522992 169.4955668 -156.49133009 166.99035678 -154.23828125 164.484375 C-152.78081189 162.86666032 -151.32003641 161.25191619 -149.85546875 159.640625 C-145.45826387 154.79181529 -141.17214164 149.86526051 -136.9375 144.875 C-133.06406634 140.31665957 -129.09952622 135.96696737 -124.8046875 131.796875 C-120.6276121 127.63788218 -116.87450077 123.0925799 -113.1875 118.5 C-112.465625 117.675 -111.74375 116.85 -111 116 C-110.34 116 -109.68 116 -109 116 C-108.73823975 115.41605469 -108.47647949 114.83210938 -108.20678711 114.23046875 C-106.9314567 111.87331346 -105.54355179 110.24332568 -103.69140625 108.3125 C-103.03229248 107.61987061 -102.37317871 106.92724121 -101.6940918 106.21362305 C-100.9906665 105.48312744 -100.28724121 104.75263184 -99.5625 104 C-98.10096494 102.46541264 -96.64002943 100.93025405 -95.1796875 99.39453125 C-94.46393555 98.64381348 -93.74818359 97.8930957 -93.01074219 97.11962891 C-88.60564053 92.47597997 -84.31031694 87.73147768 -80 83 C-72.68073958 74.97420464 -65.28998114 67.02089074 -57.8515625 59.10546875 C-55.29699113 56.38598202 -52.75027903 53.65949376 -50.2109375 50.92578125 C-44.79768753 45.0997656 -39.37915767 39.31487712 -33.70703125 33.73828125 C-31.97023531 31.96969042 -30.35884158 30.13530123 -28.75 28.25 C-25.18328628 24.09428769 -21.3141067 20.28548447 -17.42089844 16.44042969 C-13.91704738 12.96313973 -10.60629721 9.37596755 -7.39453125 5.625 C-2.56730769 0 -2.56730769 0 0 0 Z " fill="#05172F" transform="translate(588,133)"/>
<path d="M0 0 C3.68497012 1.22832337 4.49950808 2.58616317 6.875 5.625 C10.60823517 10.30366485 14.4388899 14.8658164 18.375 19.375 C26.55596216 28.77131046 34.61844642 38.25532627 42.484375 47.91796875 C45.04914425 51.06020934 47.62853754 54.18996332 50.21044922 57.31811523 C60.13694208 69.34741248 69.81363136 81.55973653 79.43652344 93.83203125 C80.38623472 95.04299417 81.33618387 96.25377057 82.28637695 97.46435547 C83.21280751 98.64503383 84.13843997 99.8263389 85.06323242 101.00830078 C88.48284605 105.37067902 91.98326747 109.66162191 95.5390625 113.9140625 C97.06920231 116.09880757 97.71024106 117.36288542 98 120 C96.87939453 121.74829102 96.87939453 121.74829102 95.1328125 123.50390625 C94.49843262 124.15705811 93.86405273 124.81020996 93.21044922 125.4831543 C92.52225098 126.16933838 91.83405273 126.85552246 91.125 127.5625 C89.73165616 128.99475587 88.34102789 130.42965854 86.953125 131.8671875 C86.27314453 132.5694043 85.59316406 133.27162109 84.89257812 133.99511719 C81.69014553 137.38758061 78.80823317 140.99753401 75.9296875 144.66796875 C73.76675945 147.28187167 71.41142436 149.61499187 69 152 C67.71467033 153.424553 66.44224324 154.86093429 65.1875 156.3125 C64.58292969 157.00988281 63.97835938 157.70726562 63.35546875 158.42578125 C62.90816406 158.94527344 62.46085937 159.46476563 62 160 C53.71127 156.55412348 47.94726844 146.77777671 42.44921875 139.984375 C39.68188892 136.6123814 36.84839151 133.30347059 34 130 C28.90067048 124.07850908 23.91400269 118.07665028 19 112 C18.23042969 111.06542969 17.46085937 110.13085938 16.66796875 109.16796875 C15.93191406 108.26691406 15.19585937 107.36585938 14.4375 106.4375 C13.77621094 105.63183594 13.11492187 104.82617188 12.43359375 103.99609375 C11 102 11 102 11 100 C10.34 100 9.68 100 9 100 C7.56418526 98.38542921 6.19855217 96.70780925 4.875 95 C4.15054687 94.071875 3.42609375 93.14375 2.6796875 92.1875 C2.12539063 91.465625 1.57109375 90.74375 1 90 C-4.1063826 94.23025549 -8.70122572 98.68483865 -13.1875 103.5625 C-13.79013672 104.20896484 -14.39277344 104.85542969 -15.01367188 105.52148438 C-17.47201621 108.17412157 -19.85865876 110.82260499 -22.11328125 113.65234375 C-24.24323142 116.30265441 -26.57987371 118.61204674 -29 121 C-31.12383706 123.23170769 -33.21700249 125.49169891 -35.3125 127.75 C-40.48396503 133.30688164 -45.67033739 138.84919592 -50.875 144.375 C-51.53822266 145.07939209 -52.20144531 145.78378418 -52.88476562 146.50952148 C-56.3157807 150.15270034 -59.74889578 153.793887 -63.18359375 157.43359375 C-71.34129539 166.08256135 -79.43084359 174.78488027 -87.43505859 183.57617188 C-93.42591227 190.1489491 -99.51383417 196.57432477 -105.8425293 202.82324219 C-109.18252362 206.13612707 -112.31177972 209.56044025 -115.359375 213.140625 C-117.78845325 215.89358035 -120.42013596 218.42903982 -123.03515625 221.00390625 C-124.92230744 222.92107177 -126.68685375 224.89575322 -128.4375 226.9375 C-131.00665271 229.92801716 -133.69317256 232.73116684 -136.5 235.5 C-139.20383393 238.16754086 -141.79255535 240.85459492 -144.25 243.75 C-148.1269508 248.28842108 -152.3834539 252.43567605 -156.64550781 256.60839844 C-159.70186771 259.51252568 -159.70186771 259.51252568 -162 263 C-193.02 263 -224.04 263 -256 263 C-254.01249248 259.02498497 -251.7544427 256.4816732 -248.65455627 253.42077637 C-248.10368455 252.86890136 -247.55281283 252.31702636 -246.98524803 251.74842787 C-245.13753843 249.89976541 -243.28277477 248.05834703 -241.42797852 246.21679688 C-240.10208219 244.8931017 -238.77663324 243.56895828 -237.45159912 242.24440002 C-234.5968993 239.39263456 -231.73906986 236.54405595 -228.87878609 233.69789124 C-224.3570966 229.19845242 -219.84249159 224.69195042 -215.32884216 220.18444824 C-208.18932284 213.05631379 -201.04514736 205.93286699 -193.89893717 198.81144094 C-181.10064128 186.05745563 -168.30789709 173.29790767 -155.52037376 160.53312159 C-151.03127721 156.05243796 -146.53938723 151.57457895 -142.04524052 147.09896088 C-139.25095266 144.31531162 -136.45869092 141.52963654 -133.66693115 138.74345207 C-132.37097133 137.4509645 -131.07414047 136.15934963 -129.77638054 134.86866951 C-128.00608523 133.10782029 -126.23889519 131.34391131 -124.47242737 129.57922363 C-123.95725211 129.06832546 -123.44207686 128.55742728 -122.91129023 128.03104734 C-120.87204649 125.98855089 -118.98847114 123.98422981 -117.28297329 121.65129852 C-116.64790151 120.83390575 -116.64790151 120.83390575 -116 120 C-115.34 120 -114.68 120 -114 120 C-113.77256104 119.44586426 -113.54512207 118.89172852 -113.31079102 118.32080078 C-111.61932567 115.32600295 -109.48217638 113.27633764 -107.02734375 110.8671875 C-106.54423233 110.38927765 -106.06112091 109.9113678 -105.56336975 109.41897583 C-104.02610959 107.89946386 -102.48230674 106.3868361 -100.9375 104.875 C-99.39002523 103.35515441 -97.84404074 101.83386581 -96.30091858 100.30960083 C-94.90429199 98.93081258 -93.50291677 97.55683935 -92.10131836 96.18310547 C-89.96740455 94.18319548 -89.96740455 94.18319548 -89 92 C-88.34 92 -87.68 92 -87 92 C-86.5937867 91.10532013 -86.5937867 91.10532013 -86.17936707 90.19256592 C-85.01304268 88.0242477 -83.87418908 86.63737398 -82.13012695 84.91894531 C-81.5522493 84.34444641 -80.97437164 83.76994751 -80.37898254 83.17803955 C-79.75505112 82.56756775 -79.13111969 81.95709595 -78.48828125 81.328125 C-77.51860664 80.36625275 -77.51860664 80.36625275 -76.52934265 79.38494873 C-74.46175974 77.33515238 -72.38763776 75.29214555 -70.3125 73.25 C-68.25603754 71.22133738 -66.20111681 69.1911744 -64.1492157 67.15789795 C-62.87423441 65.89497334 -61.59659246 64.6347266 -60.31575012 63.37774658 C-56.55730736 59.66065234 -53.03319252 55.80550022 -49.57878113 51.80487061 C-47.67865707 49.63263913 -45.6831014 47.58511689 -43.625 45.5625 C-42.86703125 44.81226563 -42.1090625 44.06203125 -41.328125 43.2890625 C-39.77604167 41.76302083 -38.22395833 40.23697917 -36.671875 38.7109375 C-32.43912414 34.52137797 -28.39543197 30.25395853 -24.51416016 25.73681641 C-22.66659473 23.6175677 -20.70718011 21.64242083 -18.6875 19.6875 C-16.42037191 17.49163723 -14.7670286 15.6505429 -13 13 C-12.34 13 -11.68 13 -11 13 C-10.76539063 12.43796875 -10.53078125 11.8759375 -10.2890625 11.296875 C-8.69337 8.45364109 -6.71075457 6.51901873 -4.375 4.25 C-3.14910156 3.05117187 -3.14910156 3.05117187 -1.8984375 1.828125 C-1.27195312 1.22484375 -0.64546875 0.6215625 0 0 Z " fill="#05172F" transform="translate(274,217)"/>
<path d="M0 0 C8.21967213 0 8.21967213 0 13 4 C15.31640625 6.8203125 15.31640625 6.8203125 17.5625 10.125 C18.43273873 11.38470568 19.30387732 12.64379006 20.17578125 13.90234375 C20.86148193 14.90177002 20.86148193 14.90177002 21.56103516 15.92138672 C24.07151383 19.547823 26.66312939 23.11535894 29.25 26.6875 C30.06597656 27.8178064 30.06597656 27.8178064 30.8984375 28.97094727 C34.9163402 34.52892892 38.98339136 40.04935606 43.0625 45.5625 C49.50746038 54.28449121 55.79094573 63.10899164 62 72 C62.66950684 72.95648438 63.33901367 73.91296875 64.02880859 74.8984375 C66.20902423 78.01401223 68.38628851 81.1316273 70.5625 84.25 C71.2539209 85.2390332 71.9453418 86.22806641 72.65771484 87.24707031 C73.30820801 88.18131836 73.95870117 89.11556641 74.62890625 90.078125 C75.20713135 90.90731445 75.78535645 91.73650391 76.38110352 92.59082031 C77.50947168 94.27001456 78.57376402 95.99328756 79.58569336 97.74511719 C80.80123663 100.11732198 80.80123663 100.11732198 83 101 C83.2578125 100.27683594 83.515625 99.55367188 83.78125 98.80859375 C85.0608104 95.85986321 86.57030912 93.62883069 88.5 91.0625 C91.62049511 86.85881144 94.71164029 82.63839727 97.75 78.375 C98.1637085 77.79580811 98.57741699 77.21661621 99.00366211 76.61987305 C101.34437245 73.33862354 103.67179725 70.04839885 105.98828125 66.75 C111.20203853 59.32786782 116.46364321 51.96768576 121.9375 44.734375 C126.99684766 38.02690651 131.87083308 31.18133116 136.78833008 24.36962891 C137.92523716 22.79569935 139.06308859 21.22245147 140.2019043 19.64990234 C142.64749422 16.27107502 145.0867103 12.8900314 147.47265625 9.46875 C148.16230469 8.4890625 148.85195313 7.509375 149.5625 6.5 C150.43068359 5.24703125 150.43068359 5.24703125 151.31640625 3.96875 C153.18852416 1.77954483 154.26372764 0.88484027 157 0 C159.31 0 161.62 0 164 0 C164 52.14 164 104.28 164 158 C154.1 158 144.2 158 134 158 C133.67 131.27 133.34 104.54 133 77 C127.0290625 85.971875 127.0290625 85.971875 120.9375 95.125 C100.69082209 125.51518539 100.69082209 125.51518539 93.54150391 135.74072266 C92.41142796 137.39699805 91.32593899 139.0839296 90.26708984 140.78662109 C89.67750488 141.70652832 89.08791992 142.62643555 88.48046875 143.57421875 C87.95735107 144.41944092 87.4342334 145.26466309 86.89526367 146.13549805 C85 148 85 148 81.90209961 148.38745117 C79 148 79 148 77.0859375 146.2265625 C76.52132812 145.36804688 75.95671875 144.50953125 75.375 143.625 C74.70210937 142.62597656 74.02921875 141.62695312 73.3359375 140.59765625 C72.96823242 140.03062988 72.60052734 139.46360352 72.22167969 138.87939453 C70.86957843 136.79936346 69.48769641 134.74109389 68.1015625 132.68359375 C65.59221754 128.95075566 63.10444346 125.20424769 60.62402344 121.45214844 C57.42818016 116.62667491 54.21204942 111.81469382 51 107 C49.61971661 104.92973754 48.23950815 102.85942512 46.859375 100.7890625 C46.18132813 99.77199219 45.50328125 98.75492187 44.8046875 97.70703125 C37.90234375 87.35351562 37.90234375 87.35351562 31 77 C30.67 103.73 30.34 130.46 30 158 C20.1 158 10.2 158 0 158 C0 105.86 0 53.72 0 0 Z " fill="#05172F" transform="translate(694,259)"/>
<path d="M0 0 C92.77719224 0 92.77719224 0 109.8828125 16.62890625 C120.50266712 28.52235968 122.88097648 42.55091028 122.39453125 58.0078125 C122.03267375 64.12148105 120.56901146 69.44640169 118 75 C117.566875 76.051875 117.13375 77.10375 116.6875 78.1875 C110.4254466 88.62425566 102.49328091 95.75248314 91 100 C92.30304215 103.58504356 93.86102834 106.44581622 96.10546875 109.5234375 C100.34427236 115.4492126 104.33414564 121.52221611 108.3125 127.625 C108.6814035 128.19016327 109.05030701 128.75532654 109.4303894 129.33761597 C114.02584573 136.37993738 118.59495813 143.43815299 123.0625 150.5625 C123.47346924 151.21621582 123.88443848 151.86993164 124.30786133 152.54345703 C127 156.87353699 127 156.87353699 127 158 C96.51300425 161.78629993 96.51300425 161.78629993 88.01611328 155.95068359 C83.14577723 150.44815522 80.27061461 143.94238355 77.43847656 137.22021484 C75.24710461 132.31454682 72.34369605 127.96254752 69.375 123.5 C68.44122738 122.03384377 67.51131141 120.56522155 66.5859375 119.09375 C65.25229159 116.97768502 63.91354199 114.86625021 62.55566406 112.765625 C62.09643555 112.04890625 61.63720703 111.3321875 61.1640625 110.59375 C60.54072021 109.62985352 60.54072021 109.62985352 59.90478516 108.64648438 C59 107 59 107 59 105 C49.76 105 40.52 105 31 105 C31 122.49 31 139.98 31 158 C20.77 158 10.54 158 0 158 C0 105.86 0 53.72 0 0 Z M31 28 C31 44.5 31 61 31 78 C37.0225 78.0825 43.045 78.165 49.25 78.25 C51.12461914 78.28641602 52.99923828 78.32283203 54.93066406 78.36035156 C65.32072845 78.47763469 75.47493913 78.37400653 84 71.625 C90.5320398 63.05169777 91.76981984 56.7061982 91 46 C89.17460668 39.81394486 85.65473378 34.22683766 80.05555725 30.81524658 C74.19895714 28.08097073 69.35182995 27.45679584 62.93359375 27.609375 C62.11701294 27.61340332 61.30043213 27.61743164 60.45910645 27.62158203 C57.45167086 27.64227764 54.4445593 27.69812051 51.4375 27.75 C44.693125 27.8325 37.94875 27.915 31 28 Z " fill="#05172F" transform="translate(1084,259)"/>
<path d="M0 0 C0.02332551 27.3633271 0.04097746 54.72665272 0.05181217 82.08998775 C0.05697587 94.79428883 0.06401997 107.49858374 0.07543945 120.20288086 C0.08538404 131.27158425 0.09185289 142.34028318 0.09408849 153.40899092 C0.09539599 159.27370828 0.09848425 165.13841287 0.10573006 171.00312614 C0.11248673 176.51628528 0.11461769 182.02942631 0.11310768 187.54258919 C0.11338417 189.57237979 0.11539138 191.60217097 0.11920547 193.63195801 C0.12413721 196.39043917 0.12300022 199.1488508 0.12025452 201.90733337 C0.12316736 202.72151967 0.1260802 203.53570598 0.12908131 204.37456459 C0.11412121 209.88587879 0.11412121 209.88587879 -1 211 C-2.98887494 211.09930533 -4.98130417 211.12799462 -6.97265625 211.12939453 C-8.25068115 211.13254669 -9.52870605 211.13569885 -10.84545898 211.13894653 C-12.25113967 211.13715675 -13.65682005 211.1351058 -15.0625 211.1328125 C-16.49357113 211.13348558 -17.92464215 211.13445564 -19.35571289 211.13571167 C-22.35857224 211.13718844 -25.3614019 211.13503476 -28.36425781 211.13037109 C-32.22152571 211.12467381 -36.07872404 211.12795292 -39.93598938 211.13394356 C-42.89213591 211.13754974 -45.84826583 211.13641032 -48.80441284 211.13381577 C-50.22704069 211.13314665 -51.64967003 211.13397437 -53.07229614 211.13629532 C-55.05731174 211.13882274 -57.04233259 211.13429042 -59.02734375 211.12939453 C-60.72491821 211.12820114 -60.72491821 211.12820114 -62.45678711 211.12698364 C-65 211 -65 211 -66 210 C-66.10739842 208.16394218 -66.14411287 206.32372828 -66.15390015 204.48455811 C-66.16250061 203.28718521 -66.17110107 202.08981232 -66.17996216 200.8561554 C-66.1843978 199.51705976 -66.18869612 198.17796366 -66.19287109 196.83886719 C-66.20076894 195.43798111 -66.20903769 194.03709707 -66.21765137 192.63621521 C-66.2439122 188.02312168 -66.25918482 183.4100189 -66.2734375 178.796875 C-66.27879585 177.21051273 -66.28417336 175.62415053 -66.28956985 174.03778839 C-66.31120615 167.43929202 -66.32994303 160.84079813 -66.34119225 154.24227524 C-66.35743104 144.77821471 -66.39059811 135.31456483 -66.44759309 125.85065913 C-66.48627716 119.20093423 -66.5058232 112.55131921 -66.51111281 105.90148473 C-66.51476896 101.92783743 -66.52681689 97.95462768 -66.55921555 93.98110199 C-66.58926909 90.24141584 -66.59561828 86.50243256 -66.58383179 82.76265144 C-66.58350549 80.73702041 -66.60799037 78.71143293 -66.63320923 76.68595886 C-66.57183258 67.76810216 -66.57183258 67.76810216 -63.61254883 63.79310608 C-62.75040771 63.20138107 -61.8882666 62.60965607 -61 62 C-60.21318848 61.21842529 -59.42637695 60.43685059 -58.61572266 59.6315918 C-57.8066748 58.82890869 -56.99762695 58.02622559 -56.1640625 57.19921875 C-54.31763651 55.36205135 -52.47128454 53.52480955 -50.625 51.6875 C-49.70460938 50.77548828 -48.78421875 49.86347656 -47.8359375 48.92382812 C-43.21578113 44.32017232 -38.7415942 39.67064771 -34.49755859 34.71801758 C-32.44314462 32.36116868 -30.23932208 30.18039255 -28 28 C-23.78460996 23.82931864 -19.82811181 19.52584647 -16 15 C-12.47194275 10.82889783 -8.92119282 6.81521464 -5 3 C-4.443125 2.401875 -3.88625 1.80375 -3.3125 1.1875 C-2 0 -2 0 0 0 Z " fill="#05172F" transform="translate(588,269)"/>
<path d="M0 0 C3.77825124 1.25941708 4.02828033 2.32558942 5.8984375 5.7578125 C6.45337891 6.76384521 7.00832031 7.76987793 7.58007812 8.80639648 C8.17240234 9.90153564 8.76472656 10.9966748 9.375 12.125 C10.64260326 14.4313337 11.9108459 16.7373161 13.1796875 19.04296875 C13.50076477 19.62951736 13.82184204 20.21606598 14.15264893 20.82038879 C17.20530648 26.39585568 20.35056026 31.91638591 23.5 37.4375 C28.79783966 46.768471 33.90920159 56.19309914 38.97607422 65.65112305 C42.69811505 72.59626186 46.4749861 79.50601402 50.31762695 86.38500977 C55.09693051 94.94723875 59.77593418 103.56400608 64.46337891 112.17675781 C66.49363978 115.90696701 68.52532583 119.63639721 70.55810547 123.36523438 C71.55377362 125.19175706 72.548899 127.01857573 73.54345703 128.84570312 C76.07619205 133.49393795 78.62481626 138.13250854 81.19921875 142.7578125 C81.71154053 143.68062012 82.2238623 144.60342773 82.75170898 145.55419922 C83.73069668 147.31564327 84.71313663 149.07517421 85.69946289 150.83251953 C86.35096313 152.00596924 86.35096313 152.00596924 87.015625 153.203125 C87.40008789 153.89051758 87.78455078 154.57791016 88.18066406 155.28613281 C89 157 89 157 89 159 C77.78 159 66.56 159 55 159 C43.08035714 138.375 43.08035714 138.375 39.5625 131.125 C36.53136432 124.8852963 33.13501638 118.89346184 29.6875 112.875 C25.08608315 104.83022121 20.75890929 96.71467511 16.69067383 88.38867188 C13.16605907 81.21369232 9.33508404 74.22723685 5.40185547 67.26879883 C4.95729004 66.47626709 4.51272461 65.68373535 4.0546875 64.8671875 C3.65749512 64.16706543 3.26030273 63.46694336 2.85107422 62.74560547 C2 61 2 61 2 59 C1.34 59 0.68 59 0 59 C-0.26917236 59.87261475 -0.53834473 60.74522949 -0.81567383 61.64428711 C-1.9563728 64.87638511 -3.30896064 67.68683784 -4.94921875 70.69140625 C-5.5426709 71.78678711 -6.13612305 72.88216797 -6.74755859 74.01074219 C-7.0632782 74.5886853 -7.3789978 75.16662842 -7.70428467 75.76208496 C-9.40337719 78.87337872 -11.08663083 81.99320713 -12.76953125 85.11328125 C-13.11846436 85.75969574 -13.46739746 86.40611023 -13.8269043 87.07211304 C-17.60157394 94.0841193 -21.23940423 101.1652135 -24.875 108.25 C-29.09560208 116.46867017 -33.3802232 124.62941734 -37.98828125 132.63891602 C-40.98959685 137.88472509 -43.70174751 143.25772989 -46.35131836 148.6887207 C-47.22047796 150.46593002 -48.10961421 152.23332955 -49 154 C-49.36665771 154.88558594 -49.73331543 155.77117187 -50.11108398 156.68359375 C-52 159 -52 159 -55.5534668 159.56762695 C-57.01895592 159.56683688 -58.48459595 159.53867021 -59.94921875 159.48828125 C-60.72183548 159.48120651 -61.49445221 159.47413177 -62.29048157 159.46684265 C-64.75714142 159.43886255 -67.22152704 159.37612407 -69.6875 159.3125 C-71.35999324 159.2874215 -73.03252209 159.26460754 -74.70507812 159.24414062 C-78.80426109 159.18902491 -82.90174507 159.10273296 -87 159 C-85.46897183 154.92570549 -83.5581427 151.11604224 -81.5078125 147.28515625 C-81.16598434 146.64183853 -80.82415619 145.99852081 -80.4719696 145.33570862 C-79.35900322 143.24319371 -78.24215553 141.15278099 -77.125 139.0625 C-76.34846147 137.60535393 -75.57201363 136.14815953 -74.7956543 134.69091797 C-70.04314619 125.77966318 -65.24803977 116.89255474 -60.39355469 108.03637695 C-56.51575292 100.9613104 -52.69153437 93.85827604 -48.875 86.75 C-43.71568665 77.14928836 -38.48586572 67.59273637 -33.16357422 58.08154297 C-31.60767995 55.29817022 -30.05942956 52.51058566 -28.51171875 49.72265625 C-27.71138023 48.28100413 -26.91059796 46.83959827 -26.109375 45.3984375 C-23.81275749 41.26737009 -21.52018546 37.13410309 -19.23258972 32.99803162 C-17.90339325 30.59537911 -16.57277453 28.19351561 -15.24203491 25.79171753 C-14.27771715 24.05006003 -13.315223 22.30739323 -12.3527832 20.56469727 C-2.14216633 2.14216633 -2.14216633 2.14216633 0 0 Z " fill="#05172F" transform="translate(1364,258)"/>
<path d="M0 0 C9.9 0 19.8 0 30 0 C30 52.14 30 104.28 30 158 C20.1 158 10.2 158 0 158 C0 105.86 0 53.72 0 0 Z " fill="#05172F" transform="translate(954,259)"/>
<path d="M0 0 C0.66 0 1.32 0 2 0 C2.10022461 0.62342285 2.20044922 1.2468457 2.30371094 1.88916016 C4.64828324 26.05707276 4.64828324 26.05707276 15.64672852 46.3371582 C20.67247398 49.51444177 25.41781922 51.27246356 31.1875 52.625 C32.01032471 52.82955811 32.83314941 53.03411621 33.6809082 53.24487305 C36.11708949 53.84591008 38.55724412 54.42633785 41 55 C42.05960938 55.25209229 42.05960938 55.25209229 43.140625 55.50927734 C46.75438487 56.36736747 50.37314892 57.19909752 54 58 C54 58.66 54 59.32 54 60 C53.26475098 60.19110352 52.52950195 60.38220703 51.77197266 60.57910156 C48.38787024 61.46274307 45.00646002 62.35630237 41.625 63.25 C40.46871094 63.55035156 39.31242188 63.85070312 38.12109375 64.16015625 C24.46087558 67.41024109 24.46087558 67.41024109 13 75 C6.4615314 87.12008814 3.93953987 102.52530194 2 116 C1.01 116 0.02 116 -1 116 C-1.13051758 115.30551758 -1.26103516 114.61103516 -1.39550781 113.89550781 C-2.00514021 110.67865593 -2.62750825 107.46438723 -3.25 104.25 C-3.45496094 103.15816406 -3.65992188 102.06632812 -3.87109375 100.94140625 C-6.55063375 85.90581489 -6.55063375 85.90581489 -14 73 C-21.24523361 68.49948894 -29.11474587 66.32856643 -37.3125 64.25 C-38.46556641 63.94707031 -39.61863281 63.64414063 -40.80664062 63.33203125 C-45.52058402 62.10230689 -50.21411086 60.91680766 -55 60 C-55 59.34 -55 58.68 -55 58 C-54.01902344 57.75765625 -53.03804687 57.5153125 -52.02734375 57.265625 C-48.42787827 56.37407615 -44.83210113 55.46830057 -41.23681641 54.56005859 C-39.14338155 54.03590016 -37.04686806 53.52650192 -34.94921875 53.01953125 C-21.99628027 50.12144401 -21.99628027 50.12144401 -11.8828125 42.234375 C-4.56749326 29.66781 -2.71745467 14.06610457 0 0 Z " fill="#07FA0D" transform="translate(622,18)"/>
</svg>
